<?xml version="1.0" encoding="UTF-8"?>
<svg xmlns="http://www.w3.org/2000/svg" xmlns:xlink="http://www.w3.org/1999/xlink" version="1.1" id="Capa_1" x="0px" y="0px" viewBox="0 0 512 512" style="enable-background:new 0 0 512 512;" xml:space="preserve" width="512" height="512">
<g id="Bell">
	<line style="fill:none;stroke:#000000;stroke-width:40;stroke-miterlimit:10;" x1="256" y1="364.995" x2="256" y2="324.995"/>
	<line style="fill:none;stroke:#000000;stroke-width:40;stroke-miterlimit:10;" x1="256" y1="284.995" x2="256" y2="204.995"/>
	<line style="fill:none;stroke:#000000;stroke-width:40;stroke-miterlimit:10;" x1="36" y1="424.995" x2="476" y2="424.995"/>
	<path style="fill:none;stroke:#000000;stroke-width:40;stroke-miterlimit:10;" d="M36,424.995c55.228,0,100-44.771,100-100v-100&#10;&#9;&#9;c0-44.183,35.817-80,80-80h80c44.183,0,80,35.817,80,80v100c0,55.228,44.771,100,100,100"/>
	<circle style="fill:none;stroke:#000000;stroke-width:40;stroke-miterlimit:10;" cx="256" cy="104.995" r="40"/>
	<line style="fill:none;stroke:#000000;stroke-width:40;stroke-miterlimit:10;" x1="512" y1="224.995" x2="436" y2="224.995"/>
	<line style="fill:none;stroke:#000000;stroke-width:40;stroke-miterlimit:10;" x1="76" y1="224.995" x2="0" y2="224.995"/>
	
		<line style="fill:none;stroke:#000000;stroke-width:40;stroke-miterlimit:10;" x1="439.848" y1="41.147" x2="383.279" y2="97.716"/>
	<line style="fill:none;stroke:#000000;stroke-width:40;stroke-miterlimit:10;" x1="72.152" y1="41.147" x2="128.721" y2="97.716"/>
	<line style="fill:none;stroke:#000000;stroke-width:40;stroke-miterlimit:10;" x1="256" y1="484.995" x2="256" y2="424.995"/>
</g>















</svg>
