<?xml version="1.0" encoding="UTF-8"?>
<svg id="Camada_1" xmlns="http://www.w3.org/2000/svg" version="1.1" viewBox="0 0 100 100">
  <!-- Generator: Adobe Illustrator 29.7.1, SVG Export Plug-In . SVG Version: 2.1.1 Build 8)  -->
  <path d="M12.1,42.8c0-5.8,4.7-10.6,10.6-10.6v22.6h-10.6v-12Z"/>
  <path d="M54.6,87.5c0,5.6-4.6,10.2-10.2,10.2h-21.7v-10.2h20.8v-7.3h11.2v7.3Z"/>
  <path d="M64.7,32.2h0v24.6c0,5.7-4.5,10.4-10.1,10.4,0,5.6-4.1,10.1-9.3,10.1h-22.7v-10.1h32v-35h-32c0-5.6,5.1-10.1,11.3-10.1h19.5c6.2,0,11.3,4.5,11.3,10.1h0Z"/>
  <rect x="33.3" y="44.4" width="10.6" height="10.6"/>
  <path d="M85.2,48h-10.1v-24.7c0-5.4-4.2-9.9-9.6-10.1h-26.8s0,0,0,0V2h27.5c10.5,0,19,8.5,19,19v27Z"/>
</svg>