<?xml version="1.0" encoding="UTF-8" standalone="no"?>
<!-- Created with Inkscape (http://www.inkscape.org/) -->

<svg
   version="1.1"
   id="svg891"
   xml:space="preserve"
   width="682.66669"
   height="682.66669"
   viewBox="0 0 682.66669 682.66669"
   xmlns="http://www.w3.org/2000/svg"
   xmlns:svg="http://www.w3.org/2000/svg"><defs
     id="defs895"><clipPath
       clipPathUnits="userSpaceOnUse"
       id="clipPath905"><path
         d="M 0,512 H 512 V 0 H 0 Z"
         id="path903" /></clipPath></defs><g
     id="g897"
     transform="matrix(1.3333333,0,0,-1.3333333,0,682.66667)"><g
       id="g899"><g
         id="g901"
         clip-path="url(#clipPath905)"><g
           id="g907"
           transform="translate(256,497)"><path
             d="M 0,0 V -270"
             style="fill:none;stroke:#000000;stroke-width:30;stroke-linecap:round;stroke-linejoin:round;stroke-miterlimit:10;stroke-dasharray:none;stroke-opacity:1"
             id="path909" /></g><g
           id="g911"
           transform="translate(156,347)"><path
             d="m 0,0 h 40 c 33.137,0 60,-26.863 60,-60 H 60 C 26.863,-60 0,-33.137 0,0 Z"
             style="fill:none;stroke:#000000;stroke-width:30;stroke-linecap:round;stroke-linejoin:round;stroke-miterlimit:10;stroke-dasharray:none;stroke-opacity:1"
             id="path913" /></g><g
           id="g915"
           transform="translate(356,347)"><path
             d="m 0,0 h -40 c -33.137,0 -60,-26.863 -60,-60 h 40 c 33.137,0 60,26.863 60,60 z"
             style="fill:none;stroke:#000000;stroke-width:30;stroke-linecap:round;stroke-linejoin:round;stroke-miterlimit:10;stroke-dasharray:none;stroke-opacity:1"
             id="path917" /></g><g
           id="g919"
           transform="translate(156,467)"><path
             d="m 0,0 h 40 c 33.137,0 60,-26.863 60,-60 H 60 C 26.863,-60 0,-33.137 0,0 Z"
             style="fill:none;stroke:#000000;stroke-width:30;stroke-linecap:round;stroke-linejoin:round;stroke-miterlimit:10;stroke-dasharray:none;stroke-opacity:1"
             id="path921" /></g><g
           id="g923"
           transform="translate(356,467)"><path
             d="m 0,0 h -40 c -33.137,0 -60,-26.863 -60,-60 h 40 c 33.137,0 60,26.863 60,60 z"
             style="fill:none;stroke:#000000;stroke-width:30;stroke-linecap:round;stroke-linejoin:round;stroke-miterlimit:10;stroke-dasharray:none;stroke-opacity:1"
             id="path925" /></g><path
           d="M 15,175 H 77 V 15 H 15 Z"
           style="fill:none;stroke:#000000;stroke-width:30;stroke-linecap:round;stroke-linejoin:round;stroke-miterlimit:10;stroke-dasharray:none;stroke-opacity:1"
           id="path927" /><g
           id="g929"
           transform="translate(135.9658,166.9644)"><path
             d="m 0,0 c 27.365,36.453 70.944,60.036 120.034,60.036 62.533,0 116.121,-38.27 138.641,-92.663"
             style="fill:none;stroke:#000000;stroke-width:30;stroke-linecap:round;stroke-linejoin:round;stroke-miterlimit:10;stroke-dasharray:none;stroke-opacity:1"
             id="path931" /></g><g
           id="g933"
           transform="translate(217.5918,144.9341)"><path
             d="M 0,0 -0.424,0.301 C -42.426,30.09 -98.69,29.996 -140.592,0.066 v -100 c 25.965,-19.473 57.545,-30 90,-30 H 114.89 c 28.682,0 55.983,12.315 74.965,33.817 l 82.466,93.409 c 10.867,12.309 9.015,31.251 -4.03,41.221 -10.655,8.143 -25.561,7.693 -35.703,-1.079 L 139.719,-42.881 C 127,-53.88 110.746,-59.934 93.93,-59.934 H -10 89.354 c 16.564,0 29.992,13.428 29.992,29.992 0,16.57 -13.437,30.001 -30.008,29.991 z"
             style="fill:none;stroke:#000000;stroke-width:30;stroke-linecap:round;stroke-linejoin:round;stroke-miterlimit:10;stroke-dasharray:none;stroke-opacity:1"
             id="path935" /></g></g></g></g></svg>
