<?xml version="1.0" encoding="iso-8859-1"?>
<!-- Generator: Adobe Illustrator 19.0.0, SVG Export Plug-In . SVG Version: 6.00 Build 0)  -->
<svg version="1.1" id="Capa_1" xmlns="http://www.w3.org/2000/svg" xmlns:xlink="http://www.w3.org/1999/xlink" x="0px" y="0px"
	 viewBox="0 0 512 512" style="enable-background:new 0 0 512 512;" xml:space="preserve">
<g>
	<g>
		<path d="M256,0c-35.841,0-65,29.159-65,65s29.159,65,65,65s65-29.159,65-65S291.841,0,256,0z M256,100c-19.299,0-35-15.701-35-35
			s15.701-35,35-35s35,15.701,35,35S275.299,100,256,100z"/>
	</g>
</g>
<g>
	<g>
		<path d="M95.333,0c-35.841,0-65,29.159-65,65s29.159,65,65,65s65-29.159,65-65S131.174,0,95.333,0z M95.333,100
			c-19.299,0-35-15.701-35-35s15.702-35,35-35c19.299,0,35,15.701,35,35S114.632,100,95.333,100z"/>
	</g>
</g>
<g>
	<g>
		<path d="M416.667,0c-35.841,0-65,29.159-65,65s29.159,65,65,65s65-29.159,65-65S452.508,0,416.667,0z M416.667,100
			c-19.299,0-35-15.701-35-35s15.701-35,35-35c19.299,0,35,15.701,35,35S435.966,100,416.667,100z"/>
	</g>
</g>
<g>
	<g>
		<path d="M0,160v176h31.531l14.667,176h98.271l14.666-176h33.063l14.667,176h98.27l14.667-176h33.063l14.666,176h98.271l14.667-176
			H512V160H0z M160.667,306h-29.136l-14.666,176H73.802L59.135,306H30V190h130.667V306z M321.333,306h-29.135l-14.667,176h-43.063
			l-14.667-176h-29.135V190h130.667V306z M482,306h-29.135l-14.667,176h-43.063l-14.666-176h-29.136V190H482V306z"/>
	</g>
</g>
<g>
</g>
<g>
</g>
<g>
</g>
<g>
</g>
<g>
</g>
<g>
</g>
<g>
</g>
<g>
</g>
<g>
</g>
<g>
</g>
<g>
</g>
<g>
</g>
<g>
</g>
<g>
</g>
<g>
</g>
</svg>
