<svg version="1.1" id="Layer_1" xmlns="http://www.w3.org/2000/svg" xmlns:xlink="http://www.w3.org/1999/xlink" x="0px" y="0px" viewBox="0 0 512 512" style="enable-background:new 0 0 512 512;" xml:space="preserve">
<g>
	<path style="fill:none;stroke:#000000;stroke-width:30;stroke-miterlimit:10;" d="M87.357,268.2&#10;&#9;&#9;c0,22.369,11.799,41.983,29.513,52.957c9.511,5.892,20.727,9.293,32.737,9.293c34.38,0,62.25-27.87,62.25-62.25&#10;&#9;&#9;s-27.87-62.25-62.25-62.25S87.357,233.82,87.357,268.2z"/>
	<circle style="fill:none;stroke:#000000;stroke-width:30;stroke-miterlimit:10;" cx="362.462" cy="268.2" r="62.25"/>
	<path style="fill:none;stroke:#000000;stroke-width:30;stroke-miterlimit:10;" d="M362.468,396.282&#10;&#9;&#9;c-25.704,29.998-63.866,49.006-106.467,49.006h0c-45.278,0-85.541-21.471-111.162-54.787"/>
	<path style="fill:none;stroke:#000000;stroke-width:30;stroke-miterlimit:10;" d="M233.766,365.017h28.362&#10;&#9;&#9;c17.642,0,34.561-7.008,47.035-19.483l15.035-15.035"/>
	<path style="fill:none;stroke:#000000;stroke-width:30;stroke-miterlimit:10;" d="M137.776,206.992&#10;&#9;&#9;c16.945-3.013,27.775-14.473,27.775-31.042v0c0-0.46-0.01-0.918-0.031-1.373c-0.899-19.945-22.319-32.239-40.373-23.714&#10;&#9;&#9;l-34.729,16.399C44.372,189.003,15,235.355,15,286.275V497h85.55v-39.319l0,0c22.104-12.631,35.745-36.137,35.745-61.594v-5.587&#10;&#9;&#9;h10.179c16.569,0,30-13.431,30-30v0c0-16.569-13.431-30-30-30H64.806"/>
	<path style="fill:none;stroke:#000000;stroke-width:30;stroke-miterlimit:10;" d="M374.224,206.992&#10;&#9;&#9;c-16.945-3.013-27.775-14.473-27.775-31.042v0c0-0.46,0.01-0.918,0.031-1.373c0.899-19.945,22.319-32.239,40.373-23.714&#10;&#9;&#9;l34.729,16.399C467.628,189.003,497,235.355,497,286.275V497h-85.55v-39.319l0,0c-22.104-12.631-35.745-36.137-35.745-61.594&#10;&#9;&#9;v-5.587h-10.179c-16.569,0-30-13.431-30-30v0c0-16.569,13.431-30,30-30h81.668"/>
	<path style="fill:none;stroke:#000000;stroke-width:30;stroke-miterlimit:10;" d="M153.298,151.809h42.809&#10;&#9;&#9;c16.546,0,29.96,13.413,29.96,29.96v0c0,16.546-13.413,29.96-29.96,29.96h-20.338"/>
	<path style="fill:none;stroke:#000000;stroke-width:30;stroke-miterlimit:10;" d="M358.769,151.809H315.96&#10;&#9;&#9;c-16.546,0-29.96,13.413-29.96,29.96v0c0,16.546,13.413,29.96,29.96,29.96h20.338"/>
	
		<line style="fill:none;stroke:#000000;stroke-width:30;stroke-miterlimit:10;" x1="208.703" y1="287.809" x2="303.043" y2="287.809"/>
	
		<line style="fill:none;stroke:#000000;stroke-width:30;stroke-miterlimit:10;" x1="324.199" y1="211.728" x2="187.87" y2="211.728"/>
	<path style="fill:none;stroke:#000000;stroke-width:30;stroke-miterlimit:10;" d="M439.45,177.736v-14.163&#10;&#9;&#9;C439.45,81.518,371.544,15,287.777,15h-58.101c-15.931,0-28.845,12.65-28.845,28.255v8.17h-49.333&#10;&#9;&#9;c-43.602,0-78.949,34.624-78.949,77.335v49.02"/>
</g>
<g>
</g>
<g>
</g>
<g>
</g>
<g>
</g>
<g>
</g>
<g>
</g>
<g>
</g>
<g>
</g>
<g>
</g>
<g>
</g>
<g>
</g>
<g>
</g>
<g>
</g>
<g>
</g>
<g>
</g>
</svg>