<?xml version="1.0" encoding="UTF-8" standalone="no"?>
<!-- Created with Inkscape (http://www.inkscape.org/) -->
<svg xmlns="http://www.w3.org/2000/svg" xmlns:svg="http://www.w3.org/2000/svg" version="1.1" id="svg2826" width="682.66669" height="682.66669" viewBox="0 0 682.66669 682.66669">
  <defs id="defs2830">
    <clipPath clipPathUnits="userSpaceOnUse" id="clipPath2840">
      <path d="M 0,512 H 512 V 0 H 0 Z" id="path2838"/>
    </clipPath>
  </defs>
  <mask id="custom"><rect id="bg" x="0" y="0" width="100%" height="100%" fill="white"/><g transform="matrix(1.3333333,0,0,-1.3333333,0,682.66667)"/></mask><g mask="url(#custom)"><g id="g2832" transform="matrix(1.3333333,0,0,-1.3333333,0,682.66667)">
    <g id="g2834">
      <g id="g2836" clip-path="url(#clipPath2840)">
        <g id="g2842" transform="translate(99,379)">
          <path d="M 0,0 C 0,22.092 17.909,40 40,40 62.091,40 80,22.092 80,0 80,-22.092 62.091,-40 40,-40 17.909,-40 0,-22.092 0,0 Z" style="fill:none;stroke:#000000;stroke-width:40;stroke-linecap:round;stroke-linejoin:round;stroke-miterlimit:10;stroke-dasharray:none;stroke-opacity:1" id="path2844"/>
        </g>
        <g id="g2846" transform="translate(333,145)">
          <path d="M 0,0 C 0,22.092 17.909,40 40,40 62.091,40 80,22.092 80,0 80,-22.092 62.091,-40 40,-40 17.909,-40 0,-22.092 0,0 Z" style="fill:none;stroke:#000000;stroke-width:40;stroke-linecap:round;stroke-linejoin:round;stroke-miterlimit:10;stroke-dasharray:none;stroke-opacity:1" id="path2848"/>
        </g>
        <g id="g2850" transform="translate(20,60)">
          <path d="M 0,0 C 0,22.092 17.909,40 40,40 62.091,40 80,22.092 80,0 80,-22.092 62.091,-40 40,-40 17.909,-40 0,-22.092 0,0 Z" style="fill:none;stroke:#000000;stroke-width:40;stroke-linecap:round;stroke-linejoin:round;stroke-miterlimit:10;stroke-dasharray:none;stroke-opacity:1" id="path2852"/>
        </g>
        <g id="g2854" transform="translate(71,271)">
          <path d="m 0,0 c 0,37.556 30.445,68 68,68 37.555,0 68,-30.444 68,-68" style="fill:none;stroke:#000000;stroke-width:40;stroke-linecap:butt;stroke-linejoin:round;stroke-miterlimit:10;stroke-dasharray:none;stroke-opacity:1" id="path2856"/>
        </g>
        <g id="g2858" transform="translate(20,373)">
          <path d="M 0,0 C 0,65.722 53.278,119 119,119 184.722,119 238,65.722 238,0 238,-65.722 184.722,-119 119,-119 53.278,-119 0,-65.722 0,0 Z" style="fill:none;stroke:#000000;stroke-width:40;stroke-linecap:round;stroke-linejoin:round;stroke-miterlimit:10;stroke-dasharray:none;stroke-opacity:1" id="path2860"/>
        </g>
        <g id="g2862" transform="translate(412,452)">
          <path d="M 0,0 C 0,22.092 17.909,40 40,40 62.091,40 80,22.092 80,0 80,-22.092 62.091,-40 40,-40 17.909,-40 0,-22.092 0,0 Z" style="fill:none;stroke:#000000;stroke-width:40;stroke-linecap:round;stroke-linejoin:round;stroke-miterlimit:10;stroke-dasharray:none;stroke-opacity:1" id="path2864"/>
        </g>
        <g id="g2866" transform="translate(305,37)">
          <path d="m 0,0 c 0,37.556 30.445,68 68,68 37.555,0 68,-30.444 68,-68" style="fill:none;stroke:#000000;stroke-width:40;stroke-linecap:butt;stroke-linejoin:round;stroke-miterlimit:10;stroke-dasharray:none;stroke-opacity:1" id="path2868"/>
        </g>
        <g id="g2870" transform="translate(254,139)">
          <path d="M 0,0 C 0,65.722 53.278,119 119,119 184.722,119 238,65.722 238,0 238,-65.722 184.722,-119 119,-119 53.278,-119 0,-65.722 0,0 Z" style="fill:none;stroke:#000000;stroke-width:40;stroke-linecap:round;stroke-linejoin:round;stroke-miterlimit:10;stroke-dasharray:none;stroke-opacity:1" id="path2872"/>
        </g>
        <g id="g2874" transform="translate(109.4658,256)">
          <path d="M 0,0 -39.874,-154" style="fill:none;stroke:#000000;stroke-width:40;stroke-linecap:butt;stroke-linejoin:round;stroke-miterlimit:10;stroke-dasharray:none;stroke-opacity:1" id="path2876"/>
        </g>
        <g id="g2878" transform="translate(224,288)">
          <path d="M 0,0 64,-64" style="fill:none;stroke:#000000;stroke-width:40;stroke-linecap:butt;stroke-linejoin:round;stroke-miterlimit:10;stroke-dasharray:none;stroke-opacity:1" id="path2880"/>
        </g>
        <g id="g2882" transform="translate(442.4092,414)">
          <path d="M 0,0 -40.131,-159" style="fill:none;stroke:#000000;stroke-width:40;stroke-linecap:butt;stroke-linejoin:round;stroke-miterlimit:10;stroke-dasharray:none;stroke-opacity:1" id="path2884"/>
        </g>
      </g>
    </g>
  </g></g>
</svg>
