<svg id="layer_1" enable-background="new 0 0 32 32" viewBox="0 0 32 32" xmlns="http://www.w3.org/2000/svg"><path d="m18.4365234 26.1430664h-11.4580078c-1.4970703 0-2.7148438-1.2177734-2.7148438-2.7143555v-12.3930664h22.1435547v8.2700195c0 .2516479.1013184.4749756.2547607.6507568.1832275.2099609.444397.3492432.7452393.3492432.5527344 0 1-.4477539 1-1v-12.5913085c.0000001-2.5996094-2.1152343-4.7143555-4.7148437-4.7143555h-16.7138672c-2.5996094 0-4.7148437 2.1147461-4.7148437 4.7143555v16.7143555c0 2.5996094 2.1152344 4.7143555 4.7148438 4.7143555h11.4580078c.5527344 0 1-.4477539 1-1 0-.25177-.1013794-.4752197-.2548828-.651001-.1832276-.2098389-.444336-.3489991-.7451173-.3489991zm-14.1728515-17.1074219v-2.321289c0-1.4965821 1.2177734-2.7143555 2.7148437-2.7143555h16.7138672c1.4970703 0 2.7148438 1.2177734 2.7148438 2.7143555v2.3212891h-22.1435547z"/><path d="m12.5302734 5.5180664h-1.3730469c-.5527344 0-1 .4477539-1 1s.4472656 1 1 1h1.3730469c.5527344 0 1-.4477539 1-1s-.4472656-1-1-1z"/><path d="m8.3710938 5.5180664h-1.3740235c-.5527344 0-1 .4477539-1 1s.4472656 1 1 1h1.3740234c.5527344 0 1-.4477539 1-1s-.4472656-1-.9999999-1z"/><path d="m29.6669922 24.4257812c.2001953-.6694336-.0488281-1.3881836-.6220703-1.7890625l-3.0255127-2.1188354-2.6590576-1.8621216c-.4726562-.3300781-1.0878906-.3842773-1.6123047-.1401367-.5214844.2436523-.8759766.7514648-.9257812 1.3242188l-.494873 5.6511841-.1105957 1.2628784c-.0605469.6958008.3291016 1.3491211.9706917 1.6254883.641613.277832 1.3857536.1123047 1.8505974-.4116211l.2050781-.230957.6201172 1.3305664c.2753906.5869141.859375.9321289 1.46875.9321289.2285156 0 .4599609-.0483398.6796875-.1513672l1.6806641-.7827148c.390625-.1831055.6875-.5073242.8349609-.9125977.1474609-.4067383.1279297-.8461914-.0546875-1.2363281l-.6201172-1.3295898.3105469-.0087891c.698242-.0195313 1.3027342-.482422 1.5039061-1.1523439zm-3.3916016-.7958984c-.3369141.0092773-.6464844.1875-.8232422.4741211-.1767578.2861328-.1982422.6425781-.0556641.9482422l1.1015625 2.3632812-.984375.4584961-1.1015625-2.3632812c-.1425781-.3051758-.4287109-.5180664-.7617188-.5668945-.0488281-.0068359-.0966797-.0102539-.1445312-.0102539-.2841797 0-.5566406.1206055-.7480469.3364258l-.4472656.5048828.4462891-5.1000977 4.1933594 2.9360352z"/></svg>